<?xml version="1.0" standalone="no"?>
<!DOCTYPE svg PUBLIC "-//W3C//DTD SVG 20010904//EN"
 "http://www.w3.org/TR/2001/REC-SVG-20010904/DTD/svg10.dtd">
<svg version="1.0" xmlns="http://www.w3.org/2000/svg"
 width="688.000000pt" height="688.000000pt" viewBox="0 0 688.000000 688.000000"
 preserveAspectRatio="xMidYMid meet">
<metadata>
Created by potrace 1.14, written by Peter Selinger 2001-2017
</metadata>
<g transform="translate(0.000000,688.000000) scale(0.100000,-0.100000)"
fill="#000000" stroke="none">
<path d="M2449 6846 c-2 -2 -42 -7 -89 -11 -47 -4 -87 -8 -90 -10 -3 -2 -30
-6 -60 -10 -137 -17 -424 -96 -550 -152 -122 -54 -324 -157 -340 -173 -3 -3
-30 -21 -60 -41 -115 -75 -263 -206 -352 -311 -24 -27 -51 -59 -60 -70 -10
-12 -39 -53 -65 -92 -27 -39 -54 -77 -60 -84 -7 -7 -13 -19 -13 -26 0 -8 -6
-19 -14 -25 -8 -7 -17 -24 -21 -39 -4 -15 -10 -29 -14 -32 -10 -6 -78 -159
-98 -220 -8 -25 -17 -52 -20 -60 -8 -21 -10 -28 -28 -100 -2 -8 -4 -16 -5 -17
-4 -5 -22 -94 -26 -128 -1 -11 -6 -47 -11 -80 -10 -75 -11 -3398 0 -3480 12
-95 12 -98 33 -192 3 -16 7 -32 8 -38 1 -5 5 -16 9 -22 5 -7 6 -13 3 -13 -10
0 66 -206 109 -295 49 -100 124 -228 137 -233 4 -2 8 -9 8 -16 0 -6 14 -26 30
-44 16 -18 30 -36 30 -39 0 -12 160 -183 224 -238 37 -33 74 -66 81 -72 8 -7
18 -13 24 -13 6 0 11 -4 11 -8 0 -17 192 -136 330 -205 166 -82 417 -174 500
-182 8 -1 24 -5 35 -8 11 -4 38 -9 60 -13 22 -3 43 -8 46 -9 3 -2 28 -7 55
-10 27 -4 60 -8 74 -11 95 -16 275 -19 1155 -19 866 0 1059 3 1175 20 167 23
411 82 515 125 11 4 52 20 90 36 128 50 409 205 445 244 3 3 32 25 65 50 75
56 256 236 316 315 168 222 275 446 333 700 2 6 6 28 10 50 4 22 10 47 13 55
3 8 8 42 11 75 9 81 9 3416 0 3485 -32 251 -96 445 -230 690 -21 39 -88 142
-112 172 -11 14 -32 41 -46 59 -73 97 -270 277 -407 372 -50 35 -260 157 -269
157 -3 0 -31 12 -62 26 -108 50 -316 121 -402 138 -14 3 -36 8 -50 11 -25 6
-98 20 -155 30 -16 2 -52 8 -80 11 -27 3 -61 9 -75 12 -27 6 -2064 14 -2071 8z
m182 -446 c19 0 57 0 86 1 28 1 56 -2 62 -5 5 -4 12 -2 16 4 4 6 10 8 14 5 7
-4 68 -6 121 -4 8 0 24 0 35 -1 11 0 50 -1 88 -1 106 1 87 4 287 -51 l85 -24
45 -90 c25 -50 62 -128 84 -173 l38 -83 17 29 c9 15 48 92 86 170 40 83 76
145 86 148 10 3 26 8 36 10 10 2 56 16 103 31 77 24 138 36 180 35 8 0 33 0
55 0 22 0 63 0 90 -1 28 0 56 -1 63 -1 6 1 23 1 37 1 32 0 52 0 68 1 6 0 26 0
42 -1 17 0 49 1 73 2 23 2 42 0 42 -3 0 -4 16 -3 34 1 19 4 36 6 38 4 2 -1 26
-5 53 -8 28 -3 61 -8 75 -10 14 -2 48 -7 75 -10 28 -4 57 -9 66 -12 10 -2 32
-7 50 -10 156 -23 139 -13 308 -186 l156 -158 0 -1870 c0 -1029 -2 -1871 -5
-1871 -3 -1 -121 -2 -262 -3 -171 -1 -258 2 -259 9 -1 5 -2 805 -3 1777 0 971
-3 1769 -6 1771 -5 5 -37 11 -125 23 -22 3 -51 9 -65 12 -37 10 -649 8 -694
-1 -21 -5 -48 -11 -60 -13 -11 -3 -32 -7 -46 -10 -14 -3 -28 -9 -32 -13 -5 -4
-9 -481 -10 -1061 l-3 -1055 -265 0 -265 0 0 1058 c0 583 -3 1061 -7 1064 -11
6 -44 12 -103 18 -27 3 -62 10 -76 16 -30 12 -618 7 -664 -5 -16 -5 -39 -9
-50 -11 -83 -9 -125 -19 -126 -29 -1 -6 -3 -801 -4 -1766 -1 -965 -3 -1762 -4
-1770 -1 -13 -36 -15 -268 -14 -148 1 -269 2 -269 3 -1 0 2 17 6 36 4 19 5 35
1 35 -3 0 -5 26 -3 57 3 71 3 73 2 98 0 11 0 43 1 71 1 28 -1 55 -4 60 -3 6
-2 16 3 24 4 7 4 24 0 36 -6 14 -5 26 0 29 5 3 5 18 0 35 -5 19 -5 30 1 30 6
0 7 5 4 10 -4 6 -6 39 -6 73 1 64 1 80 1 122 0 14 1 40 1 58 0 17 0 46 0 62
-1 17 -1 38 -1 48 0 9 0 23 -1 30 0 6 0 21 1 32 0 11 0 28 0 38 0 9 0 24 0 32
0 8 0 21 -1 28 0 6 0 32 0 57 0 25 0 52 0 60 0 8 0 24 1 35 0 11 0 27 0 35 -1
8 -1 24 0 35 0 11 0 28 0 38 0 9 0 24 0 32 0 8 -1 21 -1 28 -1 6 -1 32 0 57 1
25 1 53 1 63 0 9 0 24 0 32 0 8 0 22 0 30 0 8 0 22 0 30 0 31 0 51 -1 85 0 33
1 104 2 133 0 6 0 21 -1 32 0 11 0 43 1 71 1 28 -1 55 -4 60 -3 6 -2 16 3 24
4 7 4 24 0 36 -6 14 -5 26 0 29 5 3 5 18 0 35 -5 19 -5 30 1 30 6 0 7 5 4 10
-5 9 -7 67 -4 150 0 8 0 24 -1 35 0 11 -1 43 0 70 0 50 0 72 0 100 0 8 0 22 0
30 0 8 0 22 0 30 0 8 0 21 -1 28 0 6 0 21 1 32 1 11 1 38 1 60 0 22 0 47 0 55
0 8 0 29 0 45 -1 17 -1 38 -1 48 0 9 0 23 -1 30 0 6 0 21 1 32 0 11 0 28 0 38
0 9 0 24 0 32 0 8 0 21 -1 28 0 6 0 32 0 57 0 25 0 52 0 60 0 8 0 24 1 35 0
11 0 27 0 35 -1 8 -1 24 0 35 0 11 0 28 0 38 0 9 0 24 0 32 0 8 0 40 0 70 0
30 1 61 1 68 0 6 0 21 -1 32 0 11 0 44 1 73 1 29 -1 55 -4 58 -3 4 -3 14 2 23
5 9 5 25 1 36 -4 11 -4 29 0 41 5 11 5 27 0 34 -16 26 11 61 164 215 l155 155
183 31 c101 17 212 33 247 35 36 3 67 7 69 9 3 2 8 3 12 0 4 -2 22 -4 41 -5z"/>
</g>
</svg>
